<svg width="254" height="47" viewBox="0 0 254 47" fill="none" xmlns="http://www.w3.org/2000/svg">
<path d="M1.23188 18.5001C3.02623 18.5001 4.82057 18.5001 6.61492 18.5001C6.92271 18.5001 7.17319 18.2954 7.26324 18.0089C8.3847 14.4399 9.50617 10.8725 10.6276 7.30345C10.1954 7.30345 9.7632 7.30345 9.33099 7.30345C10.6767 11.0215 12.0225 14.7379 13.3683 18.4559C13.5827 19.0469 14.493 19.1369 14.6665 18.4559C16.1613 12.5817 17.6577 6.70915 19.1524 0.836606C18.7202 0.836606 18.2863 0.836606 17.8541 0.836606C19.2752 8.86531 20.6963 16.894 22.1173 24.9227C22.2156 25.4843 23.1013 25.5858 23.3468 25.0832C24.4274 22.8632 25.5079 20.6431 26.5868 18.4231C26.8553 17.8714 25.7502 18.5001 26.4788 18.5001C27.186 18.5001 27.8933 18.5001 28.6022 18.5001C29.871 18.5001 31.1414 18.5001 32.4102 18.5001C33.2796 18.5001 33.2796 17.1625 32.4102 17.1625C30.3179 17.1625 28.224 17.1625 26.13 17.1625C25.9074 17.1625 25.6504 17.2869 25.5488 17.4932C24.4274 19.7984 23.3059 22.1035 22.1845 24.407C22.5937 24.461 23.0047 24.5134 23.414 24.5675C21.9929 16.5388 20.5735 8.51004 19.1524 0.479702C19.0345 -0.186629 18.0113 -0.132602 17.8541 0.479702C16.3594 6.35389 14.863 12.2264 13.3683 18.099C13.8005 18.099 14.2327 18.099 14.6665 18.099C13.3208 14.3826 11.975 10.6646 10.6276 6.94818C10.405 6.3326 9.53727 6.29004 9.33099 6.94818C8.20953 10.5172 7.08806 14.0846 5.9666 17.6537C6.1827 17.4899 6.39881 17.3262 6.61492 17.1625C4.82057 17.1625 3.02623 17.1625 1.23188 17.1625C0.362545 17.1625 0.362545 18.5001 1.23188 18.5001Z" fill="#3C84FB"/>
<path d="M61.9449 33.3264C63.7392 33.3264 65.5336 33.3264 67.3279 33.3264C67.6357 33.3264 67.8878 33.1217 67.9779 32.8352C69.0993 29.2662 70.2208 25.6988 71.3423 22.1297C70.9101 22.1297 70.4778 22.1297 70.044 22.1297C71.3898 25.8477 72.7355 29.5641 74.0829 33.2821C74.2957 33.8732 75.206 33.9632 75.3795 33.2821C76.8759 27.408 78.3707 21.5354 79.8654 15.6629C79.4332 15.6629 79.001 15.6629 78.5688 15.6629C79.9898 23.6916 81.4093 31.7203 82.8303 39.749C82.9302 40.3105 83.8159 40.412 84.0598 39.9094C85.1404 37.6894 86.2209 35.4694 87.3015 33.2494C87.57 32.6977 86.4649 33.3264 87.1918 33.3264C87.9007 33.3264 88.6079 33.3264 89.3152 33.3264C90.5856 33.3264 91.8544 33.3264 93.1249 33.3264C93.9926 33.3264 93.9926 31.9888 93.1249 31.9888C91.0309 31.9888 88.937 31.9888 86.8447 31.9888C86.622 31.9888 86.3634 32.1132 86.2635 32.3195C85.142 34.6246 84.0206 36.9298 82.8991 39.2333C83.3084 39.2873 83.7177 39.3397 84.1286 39.3937C82.7075 31.365 81.2865 23.3363 79.8654 15.306C79.7475 14.6396 78.7243 14.6937 78.5688 15.306C77.0724 21.1801 75.5776 27.0527 74.0829 32.9252C74.5151 32.9252 74.9473 32.9252 75.3795 32.9252C74.0338 29.2089 72.688 25.4908 71.3423 21.7744C71.1196 21.1589 70.2503 21.1163 70.044 21.7744C68.9225 25.3435 67.8011 28.9109 66.6796 32.4799C66.8957 32.3162 67.1118 32.1525 67.3279 31.9888C65.5336 31.9888 63.7392 31.9888 61.9449 31.9888C61.0772 31.9888 61.0772 33.3264 61.9449 33.3264Z" fill="#3C84FB"/>
<path d="M45.6845 4.56445C35.2638 4.56445 26.8177 13.0123 26.8177 23.4329C26.8177 29.8948 30.0658 35.5987 35.0199 38.9975L35.0215 38.9992C36.6407 39.8734 38.4072 40.5086 40.272 40.859C40.2736 40.8606 40.2752 40.8606 40.2752 40.8606C41.3803 41.0685 42.5165 41.1782 43.6806 41.1782C53.7836 41.1782 62.0038 32.958 62.0038 22.855C62.0038 22.5537 62.2494 22.3098 62.549 22.3098C62.8502 22.3098 63.0942 22.5537 63.0942 22.855C63.0942 31.162 57.8503 38.2673 50.4978 41.0325C50.4945 41.0342 50.4928 41.0342 50.4896 41.0342C48.5774 41.7545 46.5243 42.1802 44.3829 42.2555C44.8135 42.285 45.2473 42.3013 45.6845 42.3013C56.1067 42.3013 64.5529 33.8535 64.5529 23.4329C64.5529 13.0123 56.1067 4.56445 45.6845 4.56445ZM52.7652 26.5812H48.8311V30.512C48.8311 32.1083 47.4231 33.4033 45.6845 33.4033C43.9458 33.4033 42.5378 32.1083 42.5378 30.512V26.5812H38.6053C37.0091 26.5812 35.7141 25.1699 35.7141 23.4329C35.7141 21.6959 37.0091 20.2862 38.6053 20.2862H42.5378V16.3521C42.5378 14.7559 43.9458 13.4609 45.6845 13.4609C47.4231 13.4609 48.8311 14.7559 48.8311 16.3521V20.2862H52.7652C54.3615 20.2862 55.6565 21.6959 55.6565 23.4329C55.6565 25.1699 54.3615 26.5812 52.7652 26.5812ZM62.143 18.0793C61.6027 18.6212 60.7268 18.6212 60.1866 18.0793C59.6447 17.5374 59.6447 16.6632 60.1866 16.1213C60.7268 15.581 61.6027 15.581 62.143 16.1213C62.6849 16.6632 62.6849 17.5391 62.143 18.0793Z" fill="#3C84FB"/>
<path d="M45.6845 3.94232C34.938 3.94232 26.1939 12.6848 26.1939 23.4329C26.1939 27.8647 27.6804 31.956 30.1837 35.232C30.1837 35.2336 30.1837 35.2336 30.1837 35.2336C30.1853 35.2353 30.187 35.2386 30.1902 35.2402L30.1919 35.2418C31.5737 36.7464 33.2043 38.0201 35.0199 38.9975L35.0215 38.9991C36.6407 39.8734 38.4072 40.5086 40.272 40.859C32.8441 38.5473 27.4398 31.6089 27.4398 23.4329C27.4398 13.3724 35.624 5.18657 45.6845 5.18657C55.7449 5.18657 63.9308 13.3724 63.9308 23.4329C63.9308 31.8283 58.2301 38.9173 50.4978 41.0325C50.4945 41.0342 50.4928 41.0342 50.4896 41.0342C48.5773 41.7545 46.5243 42.1802 44.3829 42.2555H44.3813C44.1488 42.2637 43.9147 42.2686 43.6806 42.2686C41.9386 42.2686 40.2507 42.0377 38.643 41.6072C40.8286 42.4569 43.2041 42.9235 45.6845 42.9235C56.4325 42.9235 65.175 34.1793 65.175 23.4329C65.175 12.6865 56.4325 3.94232 45.6845 3.94232Z" fill="#3C84FB"/>
<path d="M127.087 46.1409C126.869 46.2918 126.573 46.4175 126.193 46.5208C125.813 46.6326 125.369 46.6884 124.863 46.6884C124.104 46.6884 123.458 46.5124 122.93 46.1633C122.408 45.8057 122.009 45.3141 121.735 44.6884C121.458 44.0571 121.321 43.3336 121.321 42.5207C121.321 41.7023 121.47 40.9788 121.768 40.3531C122.065 39.7218 122.484 39.2245 123.02 38.867C123.556 38.5094 124.185 38.3307 124.908 38.3307C125.428 38.3307 125.872 38.3949 126.238 38.5206C126.609 38.6491 126.877 38.772 127.042 38.8893L126.595 40.1631C126.417 40.0514 126.204 39.9592 125.958 39.8838C125.713 39.8028 125.436 39.7609 125.132 39.7609C124.668 39.7609 124.277 39.9033 123.958 40.1855C123.646 40.462 123.433 40.8559 123.322 41.3698C123.254 41.5793 123.204 41.8 123.176 42.0291C123.154 42.2609 123.146 42.4984 123.154 42.7442C123.176 43.1408 123.243 43.5124 123.355 43.8615C123.472 44.2051 123.646 44.4928 123.869 44.7219C124.092 44.9454 124.372 45.0906 124.707 45.1577C124.81 45.18 124.919 45.1968 125.031 45.2024C125.143 45.2107 125.255 45.2107 125.366 45.2024C125.657 45.1884 125.905 45.1465 126.115 45.0794C126.322 45.0124 126.498 44.9426 126.64 44.8671L127.087 46.1409Z" fill="#3C84FB"/>
<path d="M133.383 46.5543H128.544V38.4759H133.237V39.8279H130.299V41.7497H132.902V43.0905H130.299V45.2023H133.383V46.5543Z" fill="#3C84FB"/>
<path d="M141.638 46.5543H140.61L140.208 46.5096C139.932 46.0403 139.63 45.5431 139.303 45.0124C138.974 44.4761 138.636 43.9397 138.286 43.4034C137.943 42.8671 137.608 42.3531 137.281 41.8615C137.183 41.7134 137.085 41.5542 136.99 41.381C136.901 41.2022 136.837 41.1128 136.8 41.1128C136.8 41.219 136.8 41.3698 136.8 41.5709C136.806 41.7721 136.811 41.9927 136.811 42.2302C136.817 42.4704 136.823 42.6967 136.823 42.9118V46.5543H135.225V38.4759H136.7C137.169 39.1016 137.661 39.7916 138.175 40.543C138.689 41.2972 139.172 42.0263 139.627 42.733C139.722 42.9062 139.809 43.057 139.884 43.1911C139.965 43.3252 140.024 43.4146 140.063 43.4593C140.063 43.2805 140.057 43.0626 140.052 42.8C140.052 42.5319 140.046 42.2525 140.041 41.962C140.041 41.6715 140.041 41.3922 140.041 41.124V38.4759H141.638V46.5543Z" fill="#3C84FB"/>
<path d="M148.661 39.8391H146.739V46.5543H144.984V39.8391H143.063V38.4759H148.661V39.8391Z" fill="#3C84FB"/>
<path d="M156.503 46.5543H154.559C154.268 45.99 153.958 45.423 153.632 44.8559C153.31 44.2917 152.997 43.7833 152.693 43.3363H152.067V46.5543H150.335V38.7217C150.685 38.6099 151.062 38.5261 151.464 38.4647C151.872 38.406 152.28 38.3753 152.682 38.3753C153.813 38.3753 154.662 38.5988 155.229 39.0457C155.794 39.4871 156.079 40.124 156.079 40.9564C156.079 41.4871 155.925 41.9452 155.62 42.3307C155.322 42.7106 154.922 42.9648 154.425 43.0905V43.1017C154.662 43.4006 154.897 43.747 155.129 44.1408C155.366 44.5291 155.601 44.9341 155.833 45.3587C156.07 45.7777 156.294 46.1744 156.503 46.5543ZM154.313 41.0011C154.313 40.6379 154.238 40.353 154.09 40.1519C153.947 39.9508 153.766 39.8139 153.542 39.7385C153.324 39.6575 153.098 39.6156 152.861 39.6156C152.696 39.6156 152.542 39.6267 152.402 39.6491C152.268 39.6658 152.157 39.6826 152.067 39.7049V42.3419H152.861C153.263 42.3419 153.604 42.2413 153.889 42.0402C154.171 41.8335 154.313 41.4871 154.313 41.0011Z" fill="#3C84FB"/>
<path d="M164.632 42.5207C164.632 43.3643 164.49 44.0962 164.208 44.7219C163.923 45.3476 163.518 45.8337 162.99 46.1744C162.459 46.5152 161.822 46.6884 161.079 46.6884C160.347 46.6884 159.719 46.5152 159.191 46.1744C158.66 45.8337 158.252 45.3476 157.962 44.7219C157.677 44.0962 157.537 43.3643 157.537 42.5207C157.537 41.6715 157.682 40.9341 157.973 40.3084C158.263 39.6826 158.671 39.1994 159.202 38.8558C159.73 38.5066 160.356 38.3307 161.079 38.3307C161.816 38.3307 162.448 38.5066 162.979 38.8558C163.506 39.1994 163.912 39.6826 164.196 40.3084C164.487 40.9341 164.632 41.6715 164.632 42.5207ZM162.833 42.4872C162.833 41.9732 162.769 41.5039 162.643 41.0793C162.523 40.6547 162.336 40.3195 162.085 40.0737C161.83 39.8223 161.495 39.6938 161.079 39.6938C160.677 39.6938 160.344 39.8223 160.085 40.0737C159.83 40.3279 159.64 40.6659 159.515 41.0905C159.395 41.5095 159.336 41.9732 159.336 42.4872C159.336 42.9956 159.395 43.4593 159.515 43.8839C159.64 44.3029 159.83 44.6381 160.085 44.8895C160.344 45.1353 160.677 45.2582 161.079 45.2582C161.495 45.2582 161.83 45.1353 162.085 44.8895C162.336 44.6381 162.523 44.3029 162.643 43.8839C162.769 43.4593 162.833 42.9956 162.833 42.4872Z" fill="#3C84FB"/>
<path d="M175.555 42.4983C175.555 43.3475 175.401 44.085 175.097 44.7107C174.789 45.3308 174.337 45.8113 173.733 46.1521C173.13 46.4873 172.387 46.6549 171.51 46.6549C171.091 46.6549 170.678 46.6241 170.27 46.5655C169.867 46.5124 169.49 46.4314 169.141 46.3197V38.7217C169.499 38.6099 169.879 38.5261 170.281 38.4647C170.683 38.406 171.085 38.3753 171.488 38.3753C172.806 38.3753 173.812 38.7384 174.504 39.4591C175.203 40.1826 175.555 41.1966 175.555 42.4983ZM173.767 42.4871C173.767 41.5653 173.588 40.8754 173.231 40.4201C172.873 39.9591 172.314 39.7273 171.555 39.7273C171.376 39.7273 171.233 39.7357 171.13 39.7496C171.024 39.758 170.943 39.7692 170.884 39.7832V45.2135C170.988 45.2582 171.211 45.2805 171.555 45.2805C172.314 45.2805 172.873 45.0515 173.231 44.5878C173.588 44.1269 173.767 43.4257 173.767 42.4871Z" fill="#3C84FB"/>
<path d="M182.238 46.5543H177.4V38.4759H182.093V39.8279H179.154V41.7497H181.758V43.0905H179.154V45.2023H182.238V46.5543Z" fill="#3C84FB"/>
<path d="M192.134 44.2526C192.134 44.9984 191.871 45.5906 191.352 46.0292C190.838 46.4677 190.137 46.6884 189.251 46.6884C188.662 46.6884 188.167 46.627 187.765 46.5096C187.368 46.3979 187.067 46.2722 186.86 46.1297C186.933 45.9147 187.008 45.6912 187.083 45.4593C187.156 45.2303 187.234 45.0012 187.318 44.7778C187.502 44.8895 187.745 44.9984 188.044 45.1018C188.34 45.2079 188.684 45.2582 189.072 45.2582C189.899 45.2582 190.313 44.9509 190.313 44.3308C190.313 44.0124 190.181 43.761 189.922 43.5822C189.659 43.4034 189.257 43.2107 188.715 43.0012C188.201 42.7637 187.799 42.4816 187.508 42.152C187.223 41.8168 187.064 41.4313 187.028 40.9899C187.005 40.7888 187.005 40.5849 187.028 40.3754C187.109 39.7665 187.385 39.2748 187.854 38.9005C188.329 38.5206 188.949 38.3307 189.709 38.3307C190.162 38.3307 190.572 38.3865 190.938 38.4983C191.31 38.61 191.614 38.7329 191.855 38.867L191.385 40.1408C191.184 40.0151 190.952 39.9117 190.692 39.8279C190.438 39.7385 190.162 39.6938 189.866 39.6938C189.508 39.6938 189.232 39.7692 189.039 39.9173C188.843 40.0598 188.748 40.2748 188.748 40.5654C188.748 40.895 188.885 41.1436 189.162 41.314C189.435 41.4788 189.799 41.6492 190.246 41.828C190.938 42.1268 191.424 42.4648 191.709 42.8447C191.991 43.2246 192.134 43.6939 192.134 44.2526Z" fill="#3C84FB"/>
<path d="M200.515 46.5543H198.65C198.507 46.085 198.398 45.7359 198.325 45.504C198.25 45.2666 198.197 45.099 198.169 45.0012C198.138 44.8979 198.108 44.8057 198.08 44.7219H195.309C195.211 45.0291 195.108 45.3364 194.996 45.6493C194.89 45.9565 194.795 46.2582 194.705 46.5543H193.018C193.546 45.0124 194.046 43.5906 194.515 42.286C194.985 40.9843 195.465 39.7134 195.957 38.4759H197.566C197.901 39.3027 198.225 40.1407 198.538 40.9899C198.851 41.8391 199.166 42.7218 199.488 43.638C199.814 44.5543 200.158 45.5264 200.515 46.5543ZM197.722 43.4816C197.594 43.0738 197.468 42.6771 197.342 42.2972C197.222 41.9117 197.099 41.5318 196.973 41.1575C196.898 40.9508 196.839 40.772 196.795 40.6212C196.756 40.4732 196.728 40.3698 196.705 40.3083C196.683 40.3474 196.655 40.4201 196.627 40.5318C196.596 40.638 196.563 40.7525 196.527 40.8782C196.398 41.3028 196.261 41.733 196.113 42.1631C195.962 42.5877 195.814 43.0291 195.666 43.4816H197.722Z" fill="#3C84FB"/>
<path d="M206.026 46.5543H201.456V38.4759H203.21V45.1912H206.026V46.5543Z" fill="#3C84FB"/>
<path d="M213.531 43.8168C213.531 44.3839 213.414 44.8867 213.185 45.3252C212.961 45.7582 212.626 46.0962 212.179 46.342C211.732 46.5878 211.179 46.7107 210.526 46.7107C209.668 46.7107 208.986 46.4985 208.481 46.0739C207.972 45.6437 207.679 45.0766 207.598 44.3755C207.581 44.1967 207.567 44.0179 207.553 43.8392C207.545 43.6548 207.542 43.4649 207.542 43.2693V38.4759H209.285V43.0123C209.285 43.7721 209.369 44.3364 209.542 44.6995C209.713 45.0655 210.056 45.247 210.57 45.247C210.906 45.247 211.185 45.1465 211.408 44.9453C211.637 44.7442 211.769 44.4286 211.799 43.9956C211.827 43.6827 211.844 43.3531 211.844 43.0012V38.4759H213.531V43.8168Z" fill="#3C84FB"/>
<path d="M221.939 42.4983C221.939 43.3475 221.786 44.085 221.481 44.7107C221.174 45.3308 220.722 45.8113 220.118 46.1521C219.515 46.4873 218.772 46.6549 217.895 46.6549C217.476 46.6549 217.062 46.6241 216.654 46.5655C216.252 46.5124 215.875 46.4314 215.526 46.3197V38.7217C215.883 38.6099 216.263 38.5261 216.666 38.4647C217.068 38.406 217.47 38.3753 217.872 38.3753C219.191 38.3753 220.196 38.7384 220.889 39.4591C221.587 40.1826 221.939 41.1966 221.939 42.4983ZM220.152 42.4871C220.152 41.5653 219.973 40.8754 219.615 40.4201C219.258 39.9591 218.699 39.7273 217.939 39.7273C217.761 39.7273 217.618 39.7357 217.515 39.7496C217.409 39.758 217.328 39.7692 217.269 39.7832V45.2135C217.372 45.2582 217.596 45.2805 217.939 45.2805C218.699 45.2805 219.258 45.0515 219.615 44.5878C219.973 44.1269 220.152 43.4257 220.152 42.4871Z" fill="#3C84FB"/>
<path d="M105.386 23.5393H113.277V33.4006C111.136 34.1319 108.783 34.4976 106.212 34.4976C103.395 34.4976 101.216 33.6807 99.6768 32.0441C98.1345 30.4104 97.3648 28.0778 97.3648 25.0492C97.3648 22.1003 98.2052 19.806 99.8891 18.1605C101.579 16.5179 103.941 15.6952 106.978 15.6952C108.125 15.6952 109.211 15.8072 110.234 16.0254C111.254 16.2378 112.145 16.515 112.9 16.8511L111.343 20.732C110.022 20.0802 108.574 19.7529 107.002 19.7529C105.554 19.7529 104.436 20.2218 103.652 21.1566C102.865 22.0944 102.472 23.4332 102.472 25.179C102.472 26.8952 102.826 28.1987 103.534 29.0951C104.248 29.9916 105.28 30.4399 106.624 30.4399C107.356 30.4399 108.031 30.3691 108.653 30.2275V27.3612H105.386V23.5393Z" fill="#3C84FB"/>
<path d="M128.159 27.137C128.159 29.449 127.534 31.2537 126.284 32.5513C125.039 33.8488 123.294 34.4976 121.046 34.4976C118.9 34.4976 117.189 33.837 115.915 32.5159C114.641 31.1889 114.004 29.3959 114.004 27.137C114.004 24.8251 114.624 23.0292 115.868 21.7464C117.119 20.4665 118.87 19.8237 121.129 19.8237C122.521 19.8237 123.748 20.1244 124.809 20.7201C125.877 21.3099 126.703 22.1592 127.286 23.268C127.867 24.3709 128.159 25.6596 128.159 27.137ZM118.97 27.137C118.97 28.349 119.13 29.278 119.454 29.9208C119.784 30.5578 120.333 30.8763 121.105 30.8763C121.86 30.8763 122.394 30.5578 122.71 29.9208C123.022 29.278 123.182 28.349 123.182 27.137C123.182 25.928 123.019 25.0138 122.698 24.4004C122.382 23.7811 121.84 23.4685 121.07 23.4685C120.321 23.4685 119.784 23.7752 119.454 24.3886C119.13 25.002 118.97 25.9191 118.97 27.137ZM118.133 18.7266V18.361C119.413 16.9868 120.227 16.0962 120.575 15.6951C120.92 15.2941 121.206 14.9373 121.436 14.6217H126.791V14.8812C126.122 15.4179 125.202 16.0962 124.031 16.9219C122.866 17.7476 121.984 18.3492 121.389 18.7266H118.133Z" fill="#3C84FB"/>
<path d="M146.241 34.2499V26.5472C146.241 25.5888 146.111 24.8693 145.851 24.3886C145.592 23.9109 145.173 23.6691 144.601 23.6691C143.852 23.6691 143.303 23.9935 142.95 24.6363C142.602 25.2733 142.431 26.2759 142.431 27.6442V34.2499H137.524V26.5472C137.524 25.5888 137.397 24.8693 137.146 24.3886C136.901 23.9109 136.5 23.6691 135.943 23.6691C135.17 23.6691 134.61 24.0112 134.256 24.6953C133.908 25.3795 133.737 26.4971 133.737 28.0453V34.2499H128.842V20.0714H132.534L133.147 21.8289H133.43C133.808 21.1772 134.351 20.6818 135.058 20.3427C135.772 19.9976 136.586 19.8237 137.5 19.8237C139.544 19.8237 140.98 20.4459 141.805 21.6874H142.195C142.596 21.1064 143.15 20.6494 143.858 20.3191C144.572 19.9888 145.359 19.8237 146.217 19.8237C147.892 19.8237 149.131 20.2571 149.933 21.1212C150.735 21.9793 151.136 23.2798 151.136 25.0256V34.2499H146.241Z" fill="#3C84FB"/>
<path d="M159.202 34.4976C156.843 34.4976 155.009 33.8724 153.706 32.6221C152.399 31.3658 151.748 29.5758 151.748 27.255C151.748 24.8663 152.352 23.0292 153.564 21.7464C154.773 20.4665 156.501 19.8237 158.742 19.8237C160.88 19.8237 162.529 20.384 163.685 21.4987C164.847 22.6075 165.431 24.2117 165.431 26.3113V28.4817H156.69C156.719 29.278 157.008 29.8972 157.551 30.3455C158.1 30.7937 158.849 31.0178 159.792 31.0178C160.647 31.0178 161.438 30.9412 162.163 30.7819C162.886 30.6168 163.667 30.3396 164.511 29.9444V33.4596C163.738 33.8547 162.945 34.126 162.128 34.2735C161.317 34.4209 160.341 34.4976 159.202 34.4976ZM158.919 23.1501C158.344 23.1501 157.861 23.3358 157.469 23.7045C157.082 24.0672 156.858 24.6334 156.796 25.4031H160.995C160.978 24.7189 160.783 24.1733 160.406 23.7634C160.034 23.3565 159.539 23.1501 158.919 23.1501Z" fill="#3C84FB"/>
<path d="M176.761 34.2499H165.024V31.4543L170.886 23.8224H165.366V20.0714H176.477V23.1029L170.863 30.5106H176.761V34.2499Z" fill="#3C84FB"/>
<path d="M195.1 21.7818C195.1 23.8195 194.493 25.3972 193.284 26.5119C192.08 27.6295 190.37 28.1869 188.152 28.1869H186.761V34.2499H181.83V15.9547H188.152C190.464 15.9547 192.198 16.4619 193.354 17.4763C194.516 18.4849 195.1 19.918 195.1 21.7818ZM186.761 24.1527H187.669C188.406 24.1527 188.996 23.9463 189.438 23.5275C189.878 23.1117 190.099 22.5367 190.099 21.8054C190.099 20.5727 189.415 19.9534 188.046 19.9534H186.761V24.1527Z" fill="#3C84FB"/>
<path d="M204.869 34.2499L203.926 32.3743H203.831C203.171 33.1942 202.499 33.7515 201.814 34.0493C201.13 34.3472 200.246 34.4976 199.16 34.4976C197.83 34.4976 196.781 34.1024 196.011 33.3062C195.238 32.5041 194.855 31.3776 194.855 29.9208C194.855 28.411 195.38 27.2874 196.435 26.5472C197.488 25.81 199.01 25.3972 201 25.3087L203.371 25.2261V25.0256C203.371 23.8637 202.793 23.2798 201.637 23.2798C200.605 23.2798 199.293 23.6307 197.698 24.3296L196.282 21.0976C197.934 20.2483 200.021 19.8237 202.546 19.8237C204.362 19.8237 205.766 20.2778 206.757 21.1802C207.754 22.0766 208.255 23.3358 208.255 24.9548V34.2499H204.869ZM201.236 31.0414C201.832 31.0414 202.339 30.8586 202.758 30.487C203.183 30.1096 203.395 29.623 203.395 29.0244V27.9155L202.263 27.9745C200.658 28.0306 199.856 28.6203 199.856 29.7439C199.856 30.6109 200.316 31.0414 201.236 31.0414Z" fill="#3C84FB"/>
<path d="M216.431 30.6404C217.091 30.6404 217.876 30.4752 218.79 30.1449V33.7073C218.129 33.9904 217.498 34.1909 216.902 34.3088C216.313 34.4327 215.617 34.4976 214.815 34.4976C213.169 34.4976 211.987 34.0965 211.264 33.2944C210.539 32.4923 210.179 31.2537 210.179 29.5787V23.7398H208.457V21.7581L210.639 20.2129L211.901 17.2404H215.098V20.0714H218.577V23.7398H215.098V29.2603C215.098 30.1803 215.54 30.6404 216.431 30.6404Z" fill="#3C84FB"/>
<path d="M224.085 34.2499H219.19V20.0713H224.085V34.2499ZM219.072 16.5444C219.072 15.8131 219.275 15.2705 219.685 14.9166C220.092 14.5568 220.75 14.374 221.655 14.374C222.566 14.374 223.23 14.5598 223.648 14.9284C224.064 15.2911 224.274 15.8308 224.274 16.5444C224.274 17.9835 223.401 18.703 221.655 18.703C219.933 18.703 219.072 17.9835 219.072 16.5444Z" fill="#3C84FB"/>
<path d="M234.337 34.2499V26.5237C234.337 25.58 234.202 24.8693 233.936 24.3886C233.668 23.9109 233.232 23.6691 232.627 23.6691C231.801 23.6691 231.203 23.9994 230.834 24.6599C230.471 25.3146 230.291 26.4411 230.291 28.0453V34.2499H225.396V20.0714H229.088L229.702 21.829H229.985C230.401 21.1625 230.979 20.6612 231.719 20.3309C232.456 19.9947 233.305 19.8237 234.267 19.8237C235.83 19.8237 237.05 20.2808 237.923 21.192C238.796 22.0973 239.233 23.3742 239.233 25.0256V34.2499H234.337ZM234.597 18.7503C234.219 18.7503 233.842 18.6883 233.464 18.5615C233.087 18.4377 232.713 18.2991 232.344 18.1487C231.972 18.0012 231.615 17.8626 231.27 17.7358C230.922 17.612 230.598 17.5471 230.291 17.5471C229.843 17.5471 229.542 17.957 229.395 18.7739H227.142C227.227 17.32 227.525 16.2437 228.038 15.5418C228.549 14.8429 229.301 14.492 230.291 14.492C230.604 14.492 230.94 14.5569 231.294 14.6807C231.654 14.8075 232.019 14.9461 232.391 15.0936C232.76 15.244 233.122 15.3826 233.476 15.5064C233.836 15.6332 234.175 15.6952 234.491 15.6952C234.733 15.6952 234.927 15.5949 235.069 15.3885C235.21 15.1761 235.319 14.8695 235.399 14.4684H237.676C237.581 15.8603 237.269 16.9219 236.744 17.6533C236.216 18.3846 235.499 18.7503 234.597 18.7503Z" fill="#3C84FB"/>
<path d="M254 27.137C254 29.449 253.375 31.2538 252.125 32.5513C250.88 33.8488 249.134 34.4976 246.887 34.4976C244.74 34.4976 243.03 33.837 241.756 32.5159C240.482 31.1889 239.845 29.3959 239.845 27.137C239.845 24.8251 240.464 23.0292 241.709 21.7464C242.959 20.4665 244.711 19.8237 246.97 19.8237C248.362 19.8237 249.588 20.1244 250.65 20.7201C251.718 21.3099 252.543 22.1592 253.127 23.268C253.708 24.3709 254 25.6596 254 27.137ZM244.811 27.137C244.811 28.349 244.97 29.278 245.295 29.9208C245.625 30.5578 246.174 30.8763 246.946 30.8763C247.701 30.8763 248.235 30.5578 248.55 29.9208C248.863 29.278 249.022 28.349 249.022 27.137C249.022 25.928 248.86 25.0138 248.539 24.4004C248.223 23.7811 247.68 23.4685 246.911 23.4685C246.162 23.4685 245.625 23.7752 245.295 24.3886C244.97 25.002 244.811 25.9191 244.811 27.137Z" fill="#3C84FB"/>
</svg>
